# xmcd
# Track frame offsets:
# 150
# 18777
# 58237
# 93610
# 110027
#
# Disc length: 1682 seconds
# Revision: 3
# Processed by: cddbd v1.5.1PL0 Copyright (c) Steve Scherf et al.
# Submitted via: VisiTrax 2.9.10.220 - For more info visit www.synapsa.com
#
DISCID=3e069005
DTITLE=Shania Twain - You're Still The One - Dance Mixes
DYEAR=1998
DGENRE=Dance
TTITLE0=You're Still The One (Soul Solution Radio Mix)
TTITLE1=You're Still The One (Soul Solution Extended Club Mix)
TTITLE2=You're Still The One (Kano Dub)
TTITLE3=You're Still The One (Soul Solution Percapella Dance Mix)
TTITLE4=You're Still The One (Radio Edit w/intro)
EXTD=
EXTT0=
EXTT1=
EXTT2=
EXTT3=
EXTT4=
PLAYORDER=
